<?xml version="1.0" standalone="no"?><!DOCTYPE svg PUBLIC "-//W3C//DTD SVG 1.1//EN" "http://www.w3.org/Graphics/SVG/1.1/DTD/svg11.dtd"><svg t="1693375108912" class="icon" viewBox="0 0 1024 1024" version="1.1" xmlns="http://www.w3.org/2000/svg" p-id="13119" xmlns:xlink="http://www.w3.org/1999/xlink" width="128" height="128"><path d="M876.8 352h-102.4c-54.4-89.6-150.4-147.2-262.4-147.2S304 262.4 249.6 352H12.8l140.8 176L12.8 704h259.2c57.6 70.4 144 115.2 240 115.2s182.4-44.8 240-115.2h124.8l134.4-176-134.4-176zM512 761.6c-137.6 0-249.6-112-249.6-249.6s112-249.6 249.6-249.6 249.6 112 249.6 249.6-112 249.6-249.6 249.6z" p-id="13120"></path><path d="M547.2 691.2h-64v-259.2c-22.4 22.4-51.2 41.6-80 51.2v-60.8c16-6.4 35.2-16 54.4-32 19.2-16 32-35.2 38.4-57.6h51.2v358.4z" p-id="13121"></path></svg>