<?xml version="1.0" standalone="no"?><!DOCTYPE svg PUBLIC "-//W3C//DTD SVG 1.1//EN" "http://www.w3.org/Graphics/SVG/1.1/DTD/svg11.dtd"><svg t="1693378031745" class="icon" viewBox="0 0 1024 1024" version="1.1" xmlns="http://www.w3.org/2000/svg" p-id="49117" width="128" height="128" xmlns:xlink="http://www.w3.org/1999/xlink"><path d="M849.92 445.44h-28.16c-2.56-17.92-5.12-35.84-10.24-51.2-35.84-117.76-138.24-199.68-256-212.48V148.48c0-15.36-17.92-25.6-38.4-25.6s-38.4 10.24-38.4 25.6V179.2c-7.68 0-15.36 2.56-23.04 2.56-130.56 25.6-227.84 133.12-243.2 261.12H184.32c-15.36 0-25.6 17.92-25.6 38.4s10.24 38.4 25.6 38.4h28.16c17.92 140.8 128 250.88 266.24 266.24v28.16c0 15.36 17.92 25.6 38.4 25.6s38.4-10.24 38.4-25.6v-28.16c28.16-2.56 56.32-10.24 81.92-23.04 104.96-43.52 171.52-138.24 184.32-245.76h28.16c15.36 0 25.6-17.92 25.6-38.4 0-17.92-12.8-33.28-25.6-33.28z m-102.4 107.52c-35.84 117.76-156.16 189.44-279.04 166.4-122.88-25.6-204.8-138.24-192-261.12 12.8-122.88 115.2-217.6 240.64-217.6 33.28 0 64 5.12 94.72 17.92 115.2 48.64 174.08 174.08 135.68 294.4z m-230.4-225.28c-84.48 0-153.6 69.12-153.6 153.6s69.12 153.6 153.6 153.6 153.6-69.12 153.6-153.6-69.12-153.6-153.6-153.6z m0 0" p-id="49118" fill="#bfbfbf"></path></svg>