<?xml version="1.0" standalone="no"?><!DOCTYPE svg PUBLIC "-//W3C//DTD SVG 1.1//EN" "http://www.w3.org/Graphics/SVG/1.1/DTD/svg11.dtd"><svg t="1693365881289" class="icon" viewBox="0 0 1024 1024" version="1.1" xmlns="http://www.w3.org/2000/svg" p-id="24210" width="128" height="128" xmlns:xlink="http://www.w3.org/1999/xlink"><path d="M934.4 313.088a63.744 63.744 0 1 0-64-63.744v0.512c0 34.912 28.32 63.232 63.232 63.232h0.8-0.032zM573.696 307.2h0.768a132.864 132.864 0 0 0 132.864-131.776V175.36v-1.792A133.632 133.632 0 1 0 573.696 307.2zM116.48 294.656h1.024A84.224 84.224 0 1 0 33.28 210.432v0.512a83.712 83.712 0 0 0 83.168 83.712h0.032zM974.336 595.2c13.056-32.256 51.2-133.12 43.264-217.6 0 0-11.776-43.264-82.432-43.264S851.456 377.6 851.456 377.6c-6.656 84.48 30.464 185.6 44.544 217.6a88.576 88.576 0 0 0-18.72 6.112l0.544-0.224-138.752 13.312c7.52-38.176 11.84-82.08 11.84-126.976 0-16.48-0.576-32.832-1.728-49.024l0.128 2.176s-25.6-89.088-174.336-89.088-177.408 89.088-177.408 89.088a746.912 746.912 0 0 0 16.8 208l-0.928-4.96-220.416 19.712-21.248-2.56c19.2-48.896 62.72-174.08 54.272-280.064 0 0-15.616-56.832-108.544-56.832S6.912 379.424 6.912 379.424c-8.448 107.008 36.352 235.008 55.04 281.6-33.28 4.096-55.296 11.52-55.296 19.712s34.56 19.2 82.432 22.272l397.568 179.2c0 1.536 0 3.072 1.792 4.352-76.8 4.096-130.048 14.336-130.048 25.6s102.4 28.416 215.296 28.416 190.72-12.8 190.72-28.416c0-10.752-43.008-20.224-106.24-25.6 29.472-69.216 55.488-151.296 73.856-236.224l1.664-9.28L896 630.304c11.008 2.112 23.648 3.328 36.608 3.328h0.832-0.032c38.4 0 69.376-9.472 69.376-20.992 0-7.168-11.52-13.568-29.44-17.408z m-807.68 107.264c43.776-3.328 74.752-11.776 74.752-21.76a4.672 4.672 0 0 0 0-3.104v0.032l179.2-12.8c13.696 60.8 28.768 111.584 46.688 160.96l-2.912-9.152-297.728-114.176z" fill="" p-id="24211"></path></svg>