<svg t="1693366807214" class="icon" viewBox="0 0 1024 1024" version="1.1" xmlns="http://www.w3.org/2000/svg" p-id="32960" width="128" height="128"><path d="M926.989474 573.978947h-269.473685c-18.863158 0-35.031579 16.168421-35.031578 35.031579v70.063158c0 18.863158 16.168421 35.031579 35.031578 35.031579h269.473685c18.863158 0 35.031579-16.168421 35.031579-35.031579v-70.063158c2.694737-18.863158-13.473684-35.031579-35.031579-35.031579z m-269.473685 105.094737l-2.694736-67.368421 269.473684-2.694737 2.694737 67.368421-269.473685 2.694737z" fill="#bfbfbf" p-id="32961"></path><path d="M732.968421 625.178947h-48.505263c-10.778947 0-18.863158 8.084211-18.863158 18.863158s8.084211 18.863158 18.863158 18.863158h48.505263c10.778947 0 18.863158-8.084211 18.863158-18.863158s-8.084211-18.863158-18.863158-18.863158zM926.989474 719.494737h-269.473685c-18.863158 0-35.031579 16.168421-35.031578 35.031579v70.063158c0 18.863158 16.168421 35.031579 35.031578 35.031579h269.473685c18.863158 0 35.031579-16.168421 35.031579-35.031579V754.526316c2.694737-18.863158-13.473684-35.031579-35.031579-35.031579z m-269.473685 105.094737l-2.694736-67.368421 269.473684-2.694737 2.694737 67.368421-269.473685 2.694737z" fill="#bfbfbf" p-id="32962"></path><path d="M732.968421 770.694737h-48.505263c-10.778947 0-18.863158 8.084211-18.863158 18.863158s8.084211 18.863158 18.863158 18.863158h48.505263c10.778947 0 18.863158-8.084211 18.863158-18.863158s-8.084211-18.863158-18.863158-18.863158z" fill="#bfbfbf" p-id="32963"></path><path d="M792.252632 881.178947c-10.778947 0-18.863158 8.084211-18.863158 18.863158v29.642106c0 10.778947-10.778947 21.557895-21.557895 21.557894H118.568421c-10.778947 0-21.557895-10.778947-21.557895-21.557894v-835.368422c0-10.778947 10.778947-21.557895 21.557895-21.557894h485.052632v86.231579c0 40.421053 32.336842 72.757895 72.757894 72.757894h91.621053v299.11579c0 10.778947 8.084211 18.863158 18.863158 18.863158s18.863158-8.084211 18.863158-18.863158V212.884211v-5.389474-2.694737-2.694737c0-2.694737-2.694737-2.694737-2.694737-5.389474l-167.073684-158.989473h-2.694737l-2.694737-2.694737h-2.694737H118.568421c-32.336842 0-59.284211 26.947368-59.28421 59.28421v835.368422c0 32.336842 26.947368 59.284211 59.28421 59.28421h633.263158c32.336842 0 59.284211-26.947368 59.28421-59.28421v-29.642106c0-10.778947-8.084211-18.863158-18.863157-18.863158zM644.042105 158.989474V97.010526l102.4 97.010527h-64.673684c-21.557895 0-37.726316-16.168421-37.726316-35.031579z" fill="#bfbfbf" p-id="32964"></path><path d="M668.294737 245.221053H350.315789c-10.778947 0-18.863158 8.084211-18.863157 18.863158s8.084211 18.863158 18.863157 18.863157h317.978948c10.778947 0 18.863158-8.084211 18.863158-18.863157s-10.778947-18.863158-18.863158-18.863158zM285.642105 229.052632c-8.084211-8.084211-18.863158-8.084211-26.947368 0L226.357895 261.389474l-8.084211-10.778948c-8.084211-8.084211-18.863158-8.084211-26.947368 0-8.084211 8.084211-8.084211 18.863158 0 26.947369l21.557895 21.557894c2.694737 2.694737 8.084211 5.389474 13.473684 5.389474s10.778947-2.694737 13.473684-5.389474l45.810526-45.810526c8.084211-5.389474 8.084211-16.168421 0-24.252631zM687.157895 441.936842c0-10.778947-8.084211-18.863158-18.863158-18.863158H350.315789c-10.778947 0-18.863158 8.084211-18.863157 18.863158s8.084211 18.863158 18.863157 18.863158h317.978948c8.084211 0 18.863158-8.084211 18.863158-18.863158zM285.642105 406.905263c-8.084211-8.084211-18.863158-8.084211-26.947368 0l-32.336842 32.336842-8.084211-8.08421c-8.084211-8.084211-18.863158-8.084211-26.947368 0-8.084211 8.084211-8.084211 18.863158 0 26.947368l21.557895 21.557895c5.389474 2.694737 8.084211 5.389474 13.473684 5.389474s10.778947-2.694737 13.473684-5.389474l45.810526-45.810526c8.084211-8.084211 8.084211-18.863158 0-26.947369zM538.947368 600.926316h-188.631579c-10.778947 0-18.863158 8.084211-18.863157 18.863158s8.084211 18.863158 18.863157 18.863158h188.631579c10.778947 0 18.863158-8.084211 18.863158-18.863158s-8.084211-18.863158-18.863158-18.863158zM285.642105 584.757895c-8.084211-8.084211-18.863158-8.084211-26.947368 0l-32.336842 32.336842-8.084211-8.084211c-8.084211-8.084211-18.863158-8.084211-26.947368 0-8.084211 8.084211-8.084211 18.863158 0 26.947369l21.557895 21.557894c2.694737 2.694737 8.084211 5.389474 13.473684 5.389474s10.778947-2.694737 13.473684-5.389474l45.810526-45.810526c8.084211-8.084211 5.389474-18.863158 0-26.947368zM538.947368 781.473684h-188.631579c-10.778947 0-18.863158 8.084211-18.863157 18.863158s8.084211 18.863158 18.863157 18.863158h188.631579c10.778947 0 18.863158-8.084211 18.863158-18.863158s-8.084211-18.863158-18.863158-18.863158zM258.694737 762.610526l-32.336842 32.336842-8.084211-8.08421c-8.084211-8.084211-18.863158-8.084211-26.947368 0s-8.084211 18.863158 0 26.947368l21.557895 21.557895c2.694737 2.694737 8.084211 5.389474 13.473684 5.389474s10.778947-2.694737 13.473684-5.389474l45.810526-45.810526c8.084211-8.084211 8.084211-18.863158 0-26.947369-8.084211-8.084211-18.863158-8.084211-26.947368 0z" fill="#bfbfbf" p-id="32965"></path></svg>
