<?xml version="1.0" standalone="no"?><!DOCTYPE svg PUBLIC "-//W3C//DTD SVG 1.1//EN" "http://www.w3.org/Graphics/SVG/1.1/DTD/svg11.dtd"><svg t="1693365622960" class="icon" viewBox="0 0 1024 1024" version="1.1" xmlns="http://www.w3.org/2000/svg" p-id="19638" width="128" height="128" xmlns:xlink="http://www.w3.org/1999/xlink"><path d="M865.58 778.7A384.1 384.1 0 0 0 661.88 575l-2.44-1a280.57 280.57 0 0 0 48.89-39.06 278.05 278.05 0 1 0-393.22 0 281.19 281.19 0 0 0 49.45 39.41c-0.53 0.22-1.06 0.43-1.58 0.66a382.53 382.53 0 0 0-233.81 352.72 36 36 0 0 0 72 0c0-171.4 139.44-310.83 310.83-310.83h0.85c171.39 0 310.83 139.43 310.83 310.83a36 36 0 0 0 72 0 380.52 380.52 0 0 0-30.1-149.03zM511.72 544.37c-113.62 0-206-92.43-206-206s92.43-206 206.05-206 206 92.44 206 206.05-92.44 205.95-206.05 205.95z" p-id="19639"></path><path d="M534.11 665.4a24 24 0 0 0-22.18-14.83 24 24 0 0 0-22.18 14.86L425.89 820.5a24 24 0 0 0 4.88 25.75l63.45 66.15a24 24 0 0 0 17.25 7.39h0.07a24 24 0 0 0 17.22-7.28l64.38-66.26a24 24 0 0 0 5-25.89z m-22.46 195.83l-35.42-36.92L512 737.52l35.76 86.59z" p-id="19640"></path></svg>