<?xml version="1.0" standalone="no"?><!DOCTYPE svg PUBLIC "-//W3C//DTD SVG 1.1//EN" "http://www.w3.org/Graphics/SVG/1.1/DTD/svg11.dtd"><svg t="1693376847215" class="icon" viewBox="0 0 1024 1024" version="1.1" xmlns="http://www.w3.org/2000/svg" p-id="18253" width="128" height="128" xmlns:xlink="http://www.w3.org/1999/xlink"><path d="M290.190222 561.635556L495.217778 995.555556H224.113778c-31.345778-1.450667-57.230222-13.141333-77.681778-35.072-20.423111-22.641778-32-50.403556-32.682667-83.256889v-196.522667c1.365333-33.592889 12.259556-61.354667 32.682667-83.256889a107.491556 107.491556 0 0 1 77.681778-35.072l66.076444-0.739555z m87.864889-439.722667C416.199111 80.270222 464.554667 59.079111 523.150222 56.888889c58.567111 2.190222 106.268444 23.381333 145.095111 65.024C707.072 163.555556 726.812444 214.670222 728.177778 276.764444c-0.654222 40.163556-9.528889 76.714667-27.932445 110.307556a203.406222 203.406222 0 0 1-74.922666 79.616c-32 19.712-66.076444 29.952-102.172445 29.952-36.096 0-69.489778-10.24-102.172444-29.952a208.810667 208.810667 0 0 1-74.951111-79.616 241.777778 241.777778 0 0 1-27.932445-110.307556c1.365333-62.094222 21.816889-113.948444 59.960889-154.851555z m239.104 564.650667l-94.008889 213.304888-94.008889-213.304888 94.008889-89.116445 94.008889 89.116445z m284.046222-89.856c21.134222 21.930667 34.076444 50.403556 37.461334 83.285333v196.494222c-0.682667 33.592889-11.576889 61.354667-32.682667 83.285333-21.105778 21.902222-47.018667 34.332444-78.336 35.043556h-271.815111l199.594667-433.891556h66.759111c31.345778 1.450667 57.912889 13.141333 79.018666 35.783112z" p-id="18254" fill="#bfbfbf"></path></svg>