<?xml version="1.0" standalone="no"?><!DOCTYPE svg PUBLIC "-//W3C//DTD SVG 1.1//EN" "http://www.w3.org/Graphics/SVG/1.1/DTD/svg11.dtd"><svg t="1693365365779" class="icon" viewBox="0 0 1024 1024" version="1.1" xmlns="http://www.w3.org/2000/svg" p-id="16023" width="128" height="128" xmlns:xlink="http://www.w3.org/1999/xlink"><path d="M429.444849 10.213491h252.187731a20.42814 20.42814 0 0 1 16.424664 32.583202l-66.473896 89.904643 68.267361 90.02845a20.42814 20.42814 0 0 1-16.281187 32.767176H437.249313v80.648052l298.559782 0.367949a36.159717 36.159717 0 0 1 36.15856 36.15856v578.451334h26.959822v-434.24984h109.639696a36.159717 36.159717 0 0 1 36.158559 36.15856v398.09128h36.216414a36.15856 36.15856 0 1 1 0 72.295135H742.26441a36.363362 36.363362 0 0 1-6.456472 0.572751l-449.42255-0.572751H41.245394a36.15856 36.15856 0 0 1 0-72.295135h36.15856V553.01422A36.119219 36.119219 0 0 1 113.526645 516.876488h111.580108v434.264882h25.12586V372.082573a36.155089 36.155089 0 0 1 36.15856-36.137733l89.578348 0.12265V30.641631a30.642788 30.642788 0 0 1 53.481114-20.42814z m98.322356 643.795926V481.740782L387.521747 703.387546l68.189837-8.909469v184.225838l164.038369-242.892956-91.987376 18.200772z" fill="#bfbfbf" p-id="16024"></path></svg>