<?xml version="1.0" standalone="no"?><!DOCTYPE svg PUBLIC "-//W3C//DTD SVG 1.1//EN" "http://www.w3.org/Graphics/SVG/1.1/DTD/svg11.dtd"><svg t="1693377437606" class="icon" viewBox="0 0 1024 1024" version="1.1" xmlns="http://www.w3.org/2000/svg" p-id="28673" width="128" height="128" xmlns:xlink="http://www.w3.org/1999/xlink"><path d="M955.562667 539.8528c0 32.836267 0.477867 65.7408-0.2048 98.577067a46.08 46.08 0 0 1-22.289067 39.424c-48.0256 30.378667-96.1536 60.347733-144.2816 90.453333-2.628267 1.604267-3.208533 3.584-3.208533 6.314667 0.068267 37.922133 0 75.946667 0 113.902933 0 19.114667-11.400533 30.037333-31.061334 30.037333-27.511467 0-54.954667 0-82.363733-0.068266-16.384 0-28.637867-11.434667-28.637867-27.306667a55555.072 55555.072 0 0 1 0-178.517333c0-9.728 4.983467-17.032533 13.175467-22.050134 32.0512-19.456 64.170667-38.877867 96.324267-58.2656 5.085867-3.003733 10.0352-6.2464 15.223466-9.079466 2.901333-1.604267 3.754667-3.584 3.754667-6.826667-0.068267-55.876267 0-111.684267-0.068267-167.594667 0-28.16 9.762133-52.394667 32.1536-70.656 26.692267-21.845333 57.378133-27.613867 90.3168-16.452266 32.426667 11.0592 52.1216 34.065067 59.323734 66.798933 1.365333 6.212267 1.7408 12.765867 1.7408 19.182933 0.2048 30.72 0.1024 61.405867 0.1024 92.16-0.1024 0-0.1024 0 0 0z m-669.354667-10.103467c0 28.5696 0.068267 57.105067-0.1024 85.6064 0 3.4816 1.058133 5.563733 4.164267 7.441067 35.9424 22.152533 71.918933 44.270933 107.656533 66.696533 4.3008 2.6624 8.0896 6.621867 11.025067 10.683734a18.432 18.432 0 0 1 2.901333 10.24c0.2048 59.0848 0.2048 118.203733 0.3072 177.322666 0 5.802667-0.4096 11.264-3.515733 16.384a27.101867 27.101867 0 0 1-24.3712 13.6192c-24.439467 0.068267-48.810667 0-73.250134 0-4.949333 0-10.0352 1.2288-14.813866 0.477867-14.677333-2.389333-23.6544-13.448533-23.6544-28.7744-0.1024-26.282667 0-52.497067 0-78.779733 0-12.117333-0.1024-24.234667 0-36.317867 0-2.935467-0.989867-4.539733-3.515734-6.144-48.2304-30.173867-96.529067-60.347733-144.554666-90.794667a44.544 44.544 0 0 1-21.742934-38.536533c-0.580267-64.580267-0.273067-129.297067-0.1024-193.877333 0.1024-41.1648 27.784533-75.6736 68.778667-86.186667 51.746133-13.312 104.823467 20.138667 113.220267 71.611733 0.955733 5.666133 1.467733 11.537067 1.467733 17.3056 0.170667 27.306667 0.068267 54.6816 0.068267 82.0224z m242.449067 80.110934H357.717333c-12.151467 0-21.9136-4.539733-27.477333-15.530667a26.8288 26.8288 0 0 1 23.586133-38.946133c19.968-0.580267 39.936-0.2048 59.938134-0.2048 2.628267 0 5.256533-0.170667 7.850666 0 3.515733 0.273067 5.12-0.853333 4.778667-4.539734-0.273067-4.9152-0.068267-9.9328-0.068267-14.9504 0-37.922133-0.2048-75.946667 0.1024-113.8688 0.273067-39.355733 26.077867-75.8784 63.5904-90.794666 56.6272-22.6304 120.4224 7.748267 137.079467 65.706666 2.730667 9.557333 3.7888 19.8656 3.8912 29.9008 0.477867 40.96 0.4096 81.8176 0.477867 122.7776 0 5.973333 0 5.973333 6.0416 5.973334 21.538133 0.068267 42.973867 0 64.512 0.170666 13.994667 0.1024 25.9072 9.557333 27.8528 22.050134 2.833067 18.3296-9.728 32.256-29.320534 32.256-44.3392 0.1024-88.746667 0.1024-133.085866 0.170666h-38.673067c-0.1024-0.068267-0.1024-0.068267-0.1024-0.170666zM189.44 338.0224c-46.557867 0-82.602667-34.7136-82.909867-79.291733-0.273067-43.2128 36.727467-79.2576 82.5344-79.36 46.2848-0.068267 83.285333 36.0448 83.080534 79.291733C272.0768 303.3088 236.100267 337.92 189.44 338.0224z m672.221867 0c-46.762667-0.2048-82.944-35.396267-82.432-80.5888 0.477867-43.6224 38.1952-78.506667 83.114666-77.960533 45.568 0.682667 81.92 35.771733 81.544534 79.837866-0.3072 44.168533-36.6592 78.882133-82.261334 78.711467z m-252.245334-122.129067c-0.170667 43.895467-36.522667 79.189333-81.442133 79.086934-45.7728-0.2048-81.7152-35.396267-81.7152-79.530667 0-44.305067 37.9904-79.018667 81.646933-78.916267 43.246933-0.1024 81.8176 34.338133 81.5104 79.36z m-66.525866 561.5616v-116.736c0-13.585067 10.410667-25.326933 23.7568-27.0336 14.4384-1.809067 27.477333 6.3488 31.061333 19.797334a33.553067 33.553067 0 0 1 1.092267 8.772266c0 76.117333-0.1024 152.3712-0.273067 228.522667 0 4.744533-0.580267 9.8304-2.3552 14.199467-4.778667 11.912533-18.0224 18.3296-31.266133 15.872a27.306667 27.306667 0 0 1-22.016-26.385067c-0.1024-38.877867 0-77.9264 0-117.009067z m-27.8528-0.273066v117.179733c0 11.946667-7.611733 22.152533-19.012267 25.838933-17.92 5.768533-36.420267-6.894933-36.420267-25.463466-0.1024-49.152 0-98.269867 0-147.456v-85.230934c0-14.916267 9.352533-25.429333 24.644267-27.784533 15.598933-2.389333 30.890667 10.205867 30.890667 25.429333 0 39.082667 0 78.336-0.1024 117.486934z" p-id="28674" fill="#bfbfbf"></path></svg>