<?xml version="1.0" standalone="no"?><!DOCTYPE svg PUBLIC "-//W3C//DTD SVG 1.1//EN" "http://www.w3.org/Graphics/SVG/1.1/DTD/svg11.dtd"><svg t="1693377861285" class="icon" viewBox="0 0 1230 1024" version="1.1" xmlns="http://www.w3.org/2000/svg" p-id="42629" width="153.75" height="128" xmlns:xlink="http://www.w3.org/1999/xlink"><path d="M988.616818 195.013603h-146.260203V97.506802c0-53.575166-43.931636-97.506802-97.506801-97.506802H354.644024c-53.575166 0-97.506802 43.931636-97.506802 97.506802v97.506801H110.87702c-53.575166 0-97.506802 43.931636-97.506802 97.506802v146.260202h1072.753401v-146.260202c0-53.575166-43.753052-97.506802-97.506801-97.506802z m-243.767004 0H354.644024v-73.219393c0-14.643879 9.822114-24.465992 24.465992-24.465992h341.273805c14.643879 0 24.465992 9.822114 24.465993 24.465992v73.219393zM720.383821 560.753401c0 92.685037-78.041158 170.726195-170.726194 170.726194s-170.726195-78.041158-170.726195-170.726194c0-9.822114 0-14.643879 4.821765-24.465993H13.370218v390.20579c0 53.575166 43.931636 97.506802 97.506802 97.506802h877.739798c53.575166 0 97.506802-43.931636 97.506801-97.506802V536.465992H715.562057c4.821765 9.64353 4.821765 14.643879 4.821764 24.287409z m0 0" fill="#bfbfbf" p-id="42630"></path><path d="M622.87702 560.753401c0-9.822114 0-14.643879-4.821765-24.465993h-136.616673c-4.821765 9.822114-4.821765 14.643879-4.821764 24.465993 0 38.931287 34.109522 73.219393 73.219393 73.219393 38.931287 0 73.040809-34.109522 73.040809-73.219393z m0 0" fill="#bfbfbf" p-id="42631"></path></svg>