<?xml version="1.0" standalone="no"?><!DOCTYPE svg PUBLIC "-//W3C//DTD SVG 1.1//EN" "http://www.w3.org/Graphics/SVG/1.1/DTD/svg11.dtd"><svg t="1693376223427" class="icon" viewBox="0 0 1024 1024" version="1.1" xmlns="http://www.w3.org/2000/svg" p-id="1787" width="128" height="128" xmlns:xlink="http://www.w3.org/1999/xlink"><path d="M779.776 480h-387.2a32 32 0 0 0 0 64h387.2a32 32 0 0 0 0-64M779.776 672h-387.2a32 32 0 0 0 0 64h387.2a32 32 0 0 0 0-64M256 288a32 32 0 1 0 0 64 32 32 0 0 0 0-64M392.576 352h387.2a32 32 0 0 0 0-64h-387.2a32 32 0 0 0 0 64M256 480a32 32 0 1 0 0 64 32 32 0 0 0 0-64M256 672a32 32 0 1 0 0 64 32 32 0 0 0 0-64" fill="#dbdbdb" p-id="1788"></path></svg>