<?xml version="1.0" standalone="no"?><!DOCTYPE svg PUBLIC "-//W3C//DTD SVG 1.1//EN" "http://www.w3.org/Graphics/SVG/1.1/DTD/svg11.dtd"><svg t="1693376995898" class="icon" viewBox="0 0 1024 1024" version="1.1" xmlns="http://www.w3.org/2000/svg" p-id="21738" width="128" height="128" xmlns:xlink="http://www.w3.org/1999/xlink"><path d="M671.66 234.59h39.403V105.557h-98.515c0-50.902-44.103-92.163-98.51-92.163s-98.51 41.261-98.51 92.163h-98.516V234.59H671.66z m-315.245-92.163h98.516v-36.87c0-30.538 26.459-55.297 59.106-55.297 32.64 0 59.106 24.759 59.106 55.297v36.87h98.516v55.299H356.415v-55.299z m0 0" fill="#bfbfbf" p-id="21739"></path><path d="M159.389 935.049h709.297v18.432H159.389z" fill="#bfbfbf" p-id="21740"></path><path d="M750.468 142.427v36.866h137.921v792.622H139.687V179.292h137.919v-36.866H100.283v866.353h827.509V142.427H750.468z m0 0" fill="#bfbfbf" p-id="21741"></path><path d="M514.038 400.489c84.39 0 155.011 55.15 172.928 129.033h-54.71v36.865h98.51l53.832-92.163-34.13-18.438-30.012 48.633c-27.989-81.674-109.828-140.796-206.418-140.796-119.696 0-216.728 90.781-216.728 202.763h39.403c-0.001-91.623 79.39-165.897 177.325-165.897z m0 0M272.326 717.466l34.224-55.456c26.925 83.333 109.634 144.006 207.488 144.006 119.695 0 216.728-90.781 216.728-202.764h-39.404c0 91.624-79.39 165.898-177.324 165.898-84.392 0-155.011-55.151-172.928-129.034h54.71v-36.864h-98.51l-59.106 95.78 34.122 18.434z m0 0" fill="#bfbfbf" p-id="21742"></path></svg>