<?xml version="1.0" standalone="no"?><!DOCTYPE svg PUBLIC "-//W3C//DTD SVG 1.1//EN" "http://www.w3.org/Graphics/SVG/1.1/DTD/svg11.dtd"><svg t="1693366003752" class="icon" viewBox="0 0 1024 1024" version="1.1" xmlns="http://www.w3.org/2000/svg" p-id="27588" width="128" height="128" xmlns:xlink="http://www.w3.org/1999/xlink"><path d="M508.342857 356.571429l-29.257143 58.514285-64 9.142857 47.542857 45.714286-10.971428 64 56.685714-29.257143 58.514286 29.257143-10.971429-64 45.714286-45.714286-64-9.142857z" fill="#bfbfbf" p-id="27589"></path><path d="M508.342857 298.057143c-62.171429 0-117.028571 36.571429-140.8 93.257143-23.771429 56.685714-10.971429 122.514286 32.914286 166.4s109.714286 56.685714 166.4 32.914285c56.685714-23.771429 95.085714-78.628571 95.085714-140.8 0-84.114286-69.485714-151.771429-153.6-151.771428z m0 272.457143c-49.371429 0-93.257143-29.257143-111.542857-74.971429-18.285714-45.714286-9.142857-96.914286 25.6-131.657143s85.942857-45.714286 131.657143-25.6c45.714286 18.285714 74.971429 62.171429 74.971428 111.542857 0 67.657143-53.028571 120.685714-120.685714 120.685715z" fill="#bfbfbf" p-id="27590"></path><path d="M508.342857 96.914286C281.6 96.914286 96.914286 281.6 96.914286 508.342857s184.685714 411.428571 411.428571 411.428572 411.428571-184.685714 411.428572-411.428572S735.085714 96.914286 508.342857 96.914286z m-67.657143 654.628571L416.914286 713.142857c-3.657143-5.485714-10.971429-9.142857-18.285715-7.314286l-42.057142 12.8 32.914285-89.6c25.6 16.457143 54.857143 29.257143 84.114286 32.914286l-32.914286 89.6z m177.371429-45.714286c-7.314286-1.828571-14.628571 0-18.285714 7.314286l-23.771429 38.4-31.085714-85.942857c31.085714-5.485714 58.514286-16.457143 84.114285-32.914286l32.914286 89.6-43.885714-16.457143z m-109.714286-71.314285c-74.971429 0-142.628571-43.885714-170.057143-113.371429-29.257143-69.485714-12.8-148.114286 40.228572-201.142857 53.028571-53.028571 131.657143-69.485714 201.142857-40.228571 69.485714 29.257143 113.371429 95.085714 113.371428 170.057142 0 102.4-82.285714 184.685714-184.685714 184.685715z" fill="#bfbfbf" p-id="27591"></path></svg>