<?xml version="1.0" standalone="no"?><!DOCTYPE svg PUBLIC "-//W3C//DTD SVG 1.1//EN" "http://www.w3.org/Graphics/SVG/1.1/DTD/svg11.dtd"><svg t="1693377556810" class="icon" viewBox="0 0 1024 1024" version="1.1" xmlns="http://www.w3.org/2000/svg" p-id="31839" width="128" height="128" xmlns:xlink="http://www.w3.org/1999/xlink"><path d="M517.4 771.2c0-66.6 26.999999999999996-126 70.19999999999999-169.2 14.399999999999999-36 36-61.2 55.8-82.8 9-10.799999999999999 18-19.799999999999997 23.4-28.799999999999997 18-26.999999999999996 28.799999999999997-57.599999999999994 30.6-88.2 0-5.3999999999999995 0-10.799999999999999-1.7999999999999998-14.399999999999999-3.5999999999999996-9-7.199999999999999-14.399999999999999-10.799999999999999-18-1.7999999999999998-1.7999999999999998-1.7999999999999998-1.7999999999999998-1.7999999999999998-3.5999999999999996 0 0-1.7999999999999998-1.7999999999999998 0-5.3999999999999995 1.7999999999999998-16.2 3.5999999999999996-30.6 5.3999999999999995-43.199999999999996 1.7999999999999998-23.4 1.7999999999999998-59.4-3.5999999999999996-93.6 0-7.199999999999999-1.7999999999999998-12.6-3.5999999999999996-19.799999999999997-5.3999999999999995-21.599999999999998-16.2-43.199999999999996-30.6-61.2-1.7999999999999998-3.5999999999999996-61.2-66.6-230.39999999999998-79.19999999999999-23.4-1.7999999999999998-45-1.7999999999999998-68.39999999999999 0H350.00000000000006c-7.199999999999999 0-14.399999999999999 1.7999999999999998-19.799999999999997 1.7999999999999998-18 5.3999999999999995-21.599999999999998 16.2-23.4 23.4-1.7999999999999998 10.799999999999999 1.7999999999999998 18 3.5999999999999996 25.2l-1.7999999999999998 1.7999999999999998s0 1.7999999999999998-1.7999999999999998 1.7999999999999998c-5.3999999999999995 7.199999999999999-10.799999999999999 12.6-16.2 18-1.7999999999999998 1.7999999999999998-45 39.599999999999994-46.8 88.2-7.199999999999999 37.8-5.3999999999999995 95.39999999999999 1.7999999999999998 133.2v1.7999999999999998c0 1.7999999999999998 1.7999999999999998 5.3999999999999995 1.7999999999999998 7.199999999999999-7.199999999999999 7.199999999999999-18 16.2-18 34.199999999999996 0 1.7999999999999998 3.5999999999999996 46.8 30.6 88.2 7.199999999999999 9 14.399999999999999 18 23.4 28.799999999999997 28.799999999999997 32.4 63 72 68.39999999999999 138.6 1.7999999999999998 26.999999999999996 1.7999999999999998 36 0 39.599999999999994 0 1.7999999999999998-1.7999999999999998 1.7999999999999998-1.7999999999999998 3.5999999999999996 0 0-7.199999999999999 21.599999999999998-68.39999999999999 37.8 0 0-124.20000000000002 36-144 46.8-25.2 14.399999999999999-43.199999999999996 36-57.599999999999994 59.4-10.799999999999999 25.2-18 50.4-18 77.39999999999999v21.599999999999998c0 10.799999999999999 9 18 18 18h531c-57.599999999999994-43.199999999999996-93.6-113.4-93.6-189z" p-id="31840" fill="#bfbfbf"></path><path d="M751.4 769.4000000000001V585.8000000000001c-100.8 3.5999999999999996-181.8 86.39999999999999-181.8 187.2 0 102.6 84.6 187.2 187.2 187.2S944 875.6 944 773.0000000000001v-1.7999999999999998H751.4v-1.7999999999999998z" p-id="31841" fill="#bfbfbf"></path><path d="M774.8000000000001 560.6V746H962c-1.7999999999999998-102.6-84.6-185.39999999999998-187.2-185.39999999999998z" p-id="31842" fill="#bfbfbf"></path></svg>