<?xml version="1.0" standalone="no"?><!DOCTYPE svg PUBLIC "-//W3C//DTD SVG 1.1//EN" "http://www.w3.org/Graphics/SVG/1.1/DTD/svg11.dtd"><svg t="1695609474636" class="icon" viewBox="0 0 1024 1024" version="1.1" xmlns="http://www.w3.org/2000/svg" p-id="7867" width="128" height="128" xmlns:xlink="http://www.w3.org/1999/xlink"><path d="M826.67 653.596c39.122-23.864 65.298-66.946 65.298-116.03v-104c0-67.768-49.896-124.094-114.876-134.192V198.926a14.952 14.952 0 0 0-14.952-14.952h-160.186V123.956c0-53.38-43.428-96.808-96.808-96.808H271.948c-53.38 0-96.808 43.428-96.808 96.808v60.018H14.952A14.952 14.952 0 0 0 0 198.926v530.872a14.952 14.952 0 0 0 14.952 14.952h131.872a14.952 14.952 0 1 0 0-29.904h-116.92V412.908c25.948 39.384 66.894 68.274 115.224 78.076v16.41c0 26.382 21.464 47.844 47.846 47.844s47.846-21.464 47.846-47.844v-12.686h115.5a14.952 14.952 0 1 0 0-29.904h-115.5V428.2a14.952 14.952 0 0 0-14.952-14.952H160.078a14.952 14.952 0 0 0-14.952 14.952v32.196c-66.758-16.37-115.224-76.82-115.224-147.034v-99.486H747.188v84.174c-0.89 0.058-1.764 0.164-2.65 0.24-1.022 0.088-2.046 0.166-3.062 0.276-1.238 0.134-2.466 0.302-3.694 0.47-0.982 0.134-1.97 0.256-2.946 0.41-1.248 0.198-2.484 0.434-3.72 0.666-0.938 0.176-1.884 0.336-2.818 0.532-1.274 0.268-2.53 0.574-3.79 0.878-0.878 0.212-1.762 0.402-2.634 0.63-1.338 0.348-2.656 0.744-3.976 1.132-0.774 0.228-1.558 0.434-2.324 0.674-1.488 0.466-2.954 0.982-4.42 1.5-0.584 0.206-1.178 0.388-1.76 0.604a135.706 135.706 0 0 0-11.996 5.082c-0.406 0.196-0.8 0.412-1.202 0.612-1.53 0.756-3.05 1.52-4.546 2.33-0.61 0.33-1.2 0.688-1.804 1.026-1.268 0.714-2.538 1.426-3.782 2.176-0.678 0.41-1.336 0.848-2.006 1.268-1.144 0.72-2.288 1.436-3.41 2.188-0.702 0.47-1.384 0.966-2.076 1.452-1.06 0.742-2.124 1.48-3.164 2.25-0.704 0.522-1.39 1.068-2.084 1.602-0.996 0.77-1.996 1.54-2.97 2.334-0.696 0.568-1.374 1.156-2.058 1.738-0.94 0.802-1.882 1.602-2.802 2.428-0.68 0.61-1.342 1.24-2.01 1.864a137.12 137.12 0 0 0-2.646 2.522c-0.66 0.65-1.304 1.316-1.95 1.98a139.92 139.92 0 0 0-2.496 2.618 123.68 123.68 0 0 0-1.876 2.09c-0.794 0.896-1.58 1.796-2.35 2.714-0.608 0.724-1.202 1.456-1.794 2.192a128.162 128.162 0 0 0-3.912 5.096 133.24 133.24 0 0 0-5.588 8.262c-0.51 0.818-1.014 1.638-1.508 2.468a137.1 137.1 0 0 0-1.768 3.07c-0.474 0.846-0.942 1.692-1.4 2.55a137.76 137.76 0 0 0-1.618 3.156c-0.434 0.872-0.868 1.742-1.284 2.624a135.57 135.57 0 0 0-1.468 3.24c-0.394 0.896-0.79 1.788-1.166 2.692a133.226 133.226 0 0 0-1.312 3.322c-0.35 0.912-0.706 1.824-1.038 2.748a134.746 134.746 0 0 0-1.16 3.42c-0.304 0.928-0.618 1.848-0.902 2.782-0.354 1.164-0.676 2.34-1 3.518-0.26 0.938-0.528 1.87-0.768 2.816-0.304 1.2-0.568 2.414-0.84 3.626-0.21 0.94-0.434 1.876-0.626 2.822-0.254 1.256-0.46 2.524-0.68 3.792-0.158 0.922-0.334 1.838-0.474 2.766-0.202 1.338-0.352 2.69-0.514 4.038-0.106 0.876-0.234 1.744-0.32 2.624-0.15 1.496-0.244 3.004-0.344 4.512-0.05 0.752-0.128 1.494-0.166 2.248a136.182 136.182 0 0 0-0.174 6.842v29.222a152.076 152.076 0 0 1-20.948 1.974V428.2a14.952 14.952 0 0 0-14.952-14.952h-65.788a14.952 14.952 0 0 0-14.952 14.952v36.604h-97.56a14.952 14.952 0 0 0 0 29.904h97.56v12.686c0 26.382 21.464 47.844 47.844 47.844 26.382 0 47.846-21.464 47.846-47.844v-12.742a181.23 181.23 0 0 0 20.948-1.648v44.562c0 2.268 0.06 4.532 0.172 6.784 0.044 0.878 0.13 1.744 0.19 2.618 0.094 1.362 0.178 2.724 0.312 4.076 0.108 1.084 0.26 2.152 0.392 3.23 0.14 1.122 0.264 2.248 0.428 3.368 0.18 1.2 0.4 2.386 0.61 3.574 0.172 0.972 0.328 1.95 0.522 2.916 0.258 1.288 0.554 2.562 0.848 3.836 0.196 0.848 0.376 1.698 0.588 2.544 0.342 1.37 0.726 2.724 1.108 4.074 0.208 0.726 0.4 1.456 0.62 2.176 0.442 1.466 0.924 2.912 1.416 4.356 0.198 0.582 0.386 1.168 0.592 1.748 0.564 1.586 1.166 3.154 1.786 4.712 0.164 0.41 0.318 0.824 0.486 1.232 0.712 1.74 1.466 3.456 2.246 5.16l0.278 0.612a136.698 136.698 0 0 0 52.706 59.014c-41.54 11.804-79.348 33.166-110.508 61.252H196.658a14.952 14.952 0 1 0 0 29.904h349.898c-36.298 44.218-58.238 99.326-58.238 157.99v79.162a14.952 14.952 0 0 0 14.952 14.952h113.884a14.952 14.952 0 1 0 0-29.904H518.22V902.74c0-59.718 25.482-116.82 71.752-160.782 0.462-0.438 0.934-0.866 1.4-1.3 1.79-1.674 3.606-3.32 5.442-4.94l0.43-0.38a251.794 251.794 0 0 1 11.128-9.212c0.688-0.536 1.382-1.062 2.074-1.59 1.014-0.776 2.036-1.542 3.062-2.302 1.012-0.748 2.024-1.496 3.046-2.228 0.432-0.312 0.87-0.612 1.304-0.92a253.58 253.58 0 0 1 69.198-34.474l24.276 47.164-32.432 140.786a14.952 14.952 0 0 0 4.476 14.386l62.69 57.376c2.856 2.616 6.474 3.922 10.094 3.922s7.236-1.308 10.096-3.922l62.69-57.376a14.954 14.954 0 0 0 4.476-14.386l-32.432-140.786 24.276-47.164c35.806 11.412 69.37 31.014 97.082 57.346 46.268 43.96 71.752 101.062 71.752 160.78v64.21H666.99a14.952 14.952 0 0 0 0 29.904h342.058A14.952 14.952 0 0 0 1024 981.9v-79.162c0-115.514-85.06-217.242-197.33-249.142z m-651.644-175.24v-35.206h35.886v64.242c0 9.894-8.05 17.942-17.944 17.942s-17.944-8.05-17.944-17.942v-29.036zM518.542 183.974H258.548v-49.3c0-13.634 11.092-24.728 24.728-24.728h210.54c13.634 0 24.728 11.092 24.728 24.728v49.3z m53.506 0h-23.604v-49.3c0-30.122-24.506-54.63-54.63-54.63h-210.54c-30.122 0-54.63 24.506-54.63 54.63v49.302H205.04v-60.02c0-36.892 30.014-66.906 66.906-66.906h233.196c36.892 0 66.906 30.014 66.906 66.906v60.018z m-2.548 295.782v27.64c0 9.894-8.05 17.942-17.944 17.942-9.894 0-17.942-8.05-17.942-17.942v-64.244h35.884v36.604z m80.816-46.254c0-56.538 44.558-102.864 100.404-105.704a106.618 106.618 0 0 1 5.438-0.138c1.702 0 3.394 0.05 5.078 0.13l0.17 0.006h0.07l0.122 0.002C817.44 330.638 862 376.964 862 433.502v35.614c-48.23-8.948-67.746-57.986-68.614-60.23a14.938 14.938 0 0 0-12.93-9.578 15.034 15.034 0 0 0-14.172 7.708c-1.356 2.452-32.538 57.04-115.97 62.984v-36.498z m152.006 437.276l-46.164 42.25-46.164-42.25 29.034-126.026h34.26l29.034 126.026z m-85.494-193.666c1.304-0.242 2.612-0.462 3.92-0.684a239.124 239.124 0 0 1 7.69-1.174 231.88 231.88 0 0 1 8.98-1.03l0.622-0.058a232.58 232.58 0 0 1 6.66-0.52c0.894-0.056 1.784-0.118 2.68-0.164h0.012c1.802-0.094 3.604-0.142 5.406-0.194 1.12 0.028 2.232 0.086 3.362 0.086 1.128 0 2.24-0.058 3.36-0.086 1.804 0.052 3.608 0.1 5.414 0.194 0.578 0.03 1.156 0.054 1.734 0.09a241.41 241.41 0 0 1 17.292 1.69c1.6 0.218 3.2 0.456 4.796 0.706 0.942 0.146 1.886 0.304 2.828 0.46 1.302 0.22 2.606 0.438 3.906 0.68l-19.418 37.738h-39.82l-19.424-37.734z m45.522-33.834c-0.312-0.004-0.62-0.018-0.932-0.004-0.374 0.018-0.748 0.042-1.122 0.068l-0.338 0.02c-1.198-0.032-2.392-0.078-3.594-0.094h-0.408c-1.202 0.016-2.398 0.062-3.596 0.094-54.564-1.956-99.228-46.486-101.974-100.524a107.152 107.152 0 0 1-0.134-5.272v-37.602c67.606-4.144 107.374-35.976 126.992-57.89 13.816 21.574 40.59 51.558 84.822 57.344v38.15c0 56.316-44.19 102.492-99.716 105.71z" fill="" p-id="7868"></path></svg>