<?xml version="1.0" standalone="no"?><!DOCTYPE svg PUBLIC "-//W3C//DTD SVG 1.1//EN" "http://www.w3.org/Graphics/SVG/1.1/DTD/svg11.dtd"><svg t="1700790014193" class="icon" viewBox="0 0 1024 1024" version="1.1" xmlns="http://www.w3.org/2000/svg" p-id="4985" width="128" height="128" xmlns:xlink="http://www.w3.org/1999/xlink"><path d="M364.586667 319.317333h349.013333l-119.082667 119.168a35.925333 35.925333 0 0 0 25.472 61.44 36.053333 36.053333 0 0 0 25.514667-10.538666l178.517333-178.474667a36.266667 36.266667 0 0 0 0-50.986667l-183.808-183.722666a35.925333 35.925333 0 0 0-50.901333 0 35.925333 35.925333 0 0 0 0 50.901333l120.192 120.192H364.586667c-79.786667 0-154.794667 31.104-211.2 87.466667a297.045333 297.045333 0 0 0-87.381334 211.2 35.968 35.968 0 1 0 71.978667 0c0-60.458667 23.637333-117.461333 66.432-160.256a225.109333 225.109333 0 0 1 160.170667-66.389334z m557.525333 123.690667a35.968 35.968 0 0 0-36.010667 36.010667 225.365333 225.365333 0 0 1-66.389333 160.298666 225.194667 225.194667 0 0 1-160.298667 66.389334h-349.013333l119.210667-119.210667a35.925333 35.925333 0 0 0 0-50.901333 35.925333 35.925333 0 0 0-50.901334 0l-178.517333 178.517333a36.266667 36.266667 0 0 0 0 50.986667l183.722667 183.722666a36.053333 36.053333 0 0 0 50.986666 0 35.925333 35.925333 0 0 0 0-50.901333l-120.32-120.32h344.917334c79.786667 0 154.794667-31.104 211.2-87.466667a296.746667 296.746667 0 0 0 87.466666-211.2 36.096 36.096 0 0 0-36.053333-35.925333z" fill="" opacity=".65" p-id="4986"></path></svg>
