<?xml version="1.0" standalone="no"?><!DOCTYPE svg PUBLIC "-//W3C//DTD SVG 1.1//EN" "http://www.w3.org/Graphics/SVG/1.1/DTD/svg11.dtd"><svg t="1693376533292" class="icon" viewBox="0 0 1024 1024" version="1.1" xmlns="http://www.w3.org/2000/svg" p-id="10964" width="128" height="128" xmlns:xlink="http://www.w3.org/1999/xlink"><path d="M853.248 178.368l-163.52-108.992A32 32 0 1 0 640 96V256H384V96a32 32 0 0 0-32-32h-128C171.072 64 128 107.072 128 160v704c0 52.928 43.072 96 96 96h576c52.928 0 96-43.072 96-96V258.24a96 96 0 0 0-42.752-79.872zM832 864c0 17.6-14.4 32-32 32h-576a32 32 0 0 1-32-32v-704a32 32 0 0 1 32-32H320v160a32 32 0 0 0 32 32h320a32 32 0 0 0 32-32V155.776l113.664 75.84a31.808 31.808 0 0 1 14.336 26.624V864z" p-id="10965" fill="#dbdbdb"></path><path d="M736 448h-448a32 32 0 0 0 0 64h448a32 32 0 0 0 0-64zM736 576h-448a32 32 0 0 0 0 64h448a32 32 0 0 0 0-64zM736 704h-448a32 32 0 0 0 0 64h448a32 32 0 0 0 0-64z" p-id="10966" fill="#dbdbdb"></path></svg>