<?xml version="1.0" standalone="no"?><!DOCTYPE svg PUBLIC "-//W3C//DTD SVG 1.1//EN" "http://www.w3.org/Graphics/SVG/1.1/DTD/svg11.dtd"><svg t="1693376439446" class="icon" viewBox="0 0 1280 1024" version="1.1" xmlns="http://www.w3.org/2000/svg" p-id="8867" width="160" height="128" xmlns:xlink="http://www.w3.org/1999/xlink"><path d="M1271.5132 334.4L1112.3132 63.4c-17.6-30-56.6-40.2-87-23l-138 78.2L1006.7132 322c4.4 7.6 1.8 17-5.8 21.4l-27.6 15.6c-7.6 4.4-17.4 1.8-21.8-5.8L832.1132 150l-110.4 62.6 55.8 94.8c4.4 7.6 1.8 17-5.8 21.4l-27.6 15.6c-7.6 4.4-17.4 1.8-21.8-5.8L666.5132 244 556.1132 306.6 675.7132 510c4.4 7.4 1.8 17-5.8 21.4l-27.6 15.6c-7.6 4.4-17.4 1.8-21.8-5.8l-119.4-203.4-110.4 62.6 55.8 94.8c4.4 7.6 1.8 17-5.8 21.4l-27.6 15.6c-7.6 4.4-17.4 1.8-21.8-5.8l-55.8-95-110.4 62.6 119.4 203.4c4.4 7.4 1.8 17-5.8 21.4l-27.6 15.6c-7.6 4.4-17.4 1.8-21.8-5.8L169.9132 525.8l-138 78.2C1.5132 621.4-9.0868 659.6 8.5132 689.6l159.2 271.2c17.6 30 56.6 40.2 87 23L1248.3132 420c30.4-17.2 40.8-55.6 23.2-85.6z" p-id="8868" fill="#dbdbdb"></path></svg>