<?xml version="1.0" standalone="no"?><!DOCTYPE svg PUBLIC "-//W3C//DTD SVG 1.1//EN" "http://www.w3.org/Graphics/SVG/1.1/DTD/svg11.dtd"><svg t="1693377691372" class="icon" viewBox="0 0 1024 1024" version="1.1" xmlns="http://www.w3.org/2000/svg" p-id="40539" width="128" height="128" xmlns:xlink="http://www.w3.org/1999/xlink"><path d="M995.509537 995.557027V938.670082h-56.885945v-28.443973h-56.885946V426.694572h56.885946V398.250599h56.886945v-56.885946h28.442973v654.192374z m-28.441973-625.749401h-85.329918v56.886946H142.216354v-56.886946h-85.329918v-28.442973h910.181128v28.442973zM85.329408 398.250599v28.443973h56.886946v483.532537H85.329408v28.443973H28.443463v56.885945H0.00049V341.364653h28.442973v56.885946z m0 568.863455h56.886946v-56.886945h739.521292v56.886945h56.885946v28.442973h28.443972V1024H56.886436v-28.442973H85.330408v-28.442973z m298.653715-199.101809l99.549904-142.215864 79.641924 91.017913 127.993878-179.191829L824.851701 853.340163H227.545272l93.009911-148.188858 63.42794 62.85994z m-38.398964-153.593853a58.592944 58.592944 0 0 1-63.996938-51.196951 58.592944 58.592944 0 0 1 63.996938-51.197951 58.592944 58.592944 0 0 1 63.997939 51.197951 58.592944 58.592944 0 0 1-63.997939 51.196951z m507.709514-273.053739L577.965937 129.747856a81.631922 81.631922 0 0 1-49.206953 16.496984 80.209923 80.209923 0 0 1-63.427939-30.149971l-266.227746 225.269784h-56.885945L452.530057 90.780893a64.849938 64.849938 0 0 1-2.559998-17.634983A76.227927 76.227927 0 0 1 528.757984 0.04698a76.227927 76.227927 0 0 1 78.787925 73.09893 67.979935 67.979935 0 0 1-10.239991 36.122965l312.874701 232.095778z" p-id="40540" fill="#bfbfbf"></path></svg>