<?xml version="1.0" standalone="no"?><!DOCTYPE svg PUBLIC "-//W3C//DTD SVG 1.1//EN" "http://www.w3.org/Graphics/SVG/1.1/DTD/svg11.dtd"><svg t="1693376738618" class="icon" viewBox="0 0 1024 1024" version="1.1" xmlns="http://www.w3.org/2000/svg" p-id="15011" width="128" height="128" xmlns:xlink="http://www.w3.org/1999/xlink"><path d="M334.222222 439.466667m-42.666666 0a42.666667 42.666667 0 1 0 85.333333 0 42.666667 42.666667 0 1 0-85.333333 0Z" p-id="15012" fill="#bfbfbf"></path><path d="M839.111111 125.155556H184.888889c-31.288889 0-56.888889 25.6-56.888889 56.888888v684.088889c0 25.6 31.288889 38.4 48.355556 19.911111l135.111111-135.111111H839.111111c31.288889 0 56.888889-25.6 56.888889-56.888889v-512c0-31.288889-25.6-56.888889-56.888889-56.888888z m0 568.888888H311.466667c-15.644444 0-29.866667 5.688889-39.822223 17.066667L184.888889 796.444444V182.044444h654.222222v512z" p-id="15013" fill="#bfbfbf"></path><path d="M512 439.466667m-42.666667 0a42.666667 42.666667 0 1 0 85.333334 0 42.666667 42.666667 0 1 0-85.333334 0Z" p-id="15014" fill="#bfbfbf"></path><path d="M689.777778 439.466667m-42.666667 0a42.666667 42.666667 0 1 0 85.333333 0 42.666667 42.666667 0 1 0-85.333333 0Z" p-id="15015" fill="#bfbfbf"></path></svg>