<?xml version="1.0" standalone="no"?><!DOCTYPE svg PUBLIC "-//W3C//DTD SVG 1.1//EN" "http://www.w3.org/Graphics/SVG/1.1/DTD/svg11.dtd"><svg t="1693376599929" class="icon" viewBox="0 0 1024 1024" version="1.1" xmlns="http://www.w3.org/2000/svg" p-id="13258" width="128" height="128" xmlns:xlink="http://www.w3.org/1999/xlink"><path d="M298.666667 128a128 128 0 0 1 128 128c0 55.04-34.56 101.973333-83.626667 119.893333 23.04 213.333333 215.04 254.293333 305.066667 262.4A127.36 127.36 0 0 1 768 554.666667a128 128 0 0 1 128 128 128 128 0 0 1-128 128c-55.893333 0-103.68-35.84-121.173333-85.333334-181.333333-8.533333-244.053333-77.226667-305.493334-154.026666v75.946666c49.92 17.493333 85.333333 64.853333 85.333334 120.746667a128 128 0 0 1-128 128 128 128 0 0 1-128-128c0-55.893333 35.413333-103.253333 85.333333-120.746667V376.746667A127.573333 127.573333 0 0 1 170.666667 256a128 128 0 0 1 128-128m0 85.333333a42.666667 42.666667 0 0 0-42.666667 42.666667 42.666667 42.666667 0 0 0 42.666667 42.666667 42.666667 42.666667 0 0 0 42.666666-42.666667 42.666667 42.666667 0 0 0-42.666666-42.666667m0 512a42.666667 42.666667 0 0 0-42.666667 42.666667 42.666667 42.666667 0 0 0 42.666667 42.666667 42.666667 42.666667 0 0 0 42.666666-42.666667 42.666667 42.666667 0 0 0-42.666666-42.666667m469.333333-85.333333a42.666667 42.666667 0 0 0-42.666667 42.666667 42.666667 42.666667 0 0 0 42.666667 42.666666 42.666667 42.666667 0 0 0 42.666667-42.666666 42.666667 42.666667 0 0 0-42.666667-42.666667z" fill="#dbdbdb" p-id="13259"></path></svg>