<?xml version="1.0" standalone="no"?><!DOCTYPE svg PUBLIC "-//W3C//DTD SVG 1.1//EN" "http://www.w3.org/Graphics/SVG/1.1/DTD/svg11.dtd"><svg t="1693377589008" class="icon" viewBox="0 0 1024 1024" version="1.1" xmlns="http://www.w3.org/2000/svg" p-id="32959" width="128" height="128" xmlns:xlink="http://www.w3.org/1999/xlink"><path d="M982.421382 1023.980002H40.805511a39.995577 39.995577 0 0 1-28.296871-68.232454L954.704447 11.831932A39.995577 39.995577 0 0 1 1023.096884 40.088807l-0.679925 943.895618a39.995577 39.995577 0 0 1-39.995577 39.995577zM137.254845 943.988848h805.190957l0.579936-807.170738z" fill="#bfbfbf" p-id="32960"></path><path d="M790.042656 830.401409H522.332261a39.995577 39.995577 0 0 1-28.296871-68.252452l267.970367-268.370322A39.995577 39.995577 0 0 1 830.238211 522.03551l-0.199978 268.350324a39.995577 39.995577 0 0 1-39.995577 40.015575z m-171.301056-79.991154h131.285481l0.099989-131.625444z" fill="#bfbfbf" p-id="32961"></path></svg>