<?xml version="1.0" standalone="no"?><!DOCTYPE svg PUBLIC "-//W3C//DTD SVG 1.1//EN" "http://www.w3.org/Graphics/SVG/1.1/DTD/svg11.dtd"><svg t="1704164026727" class="icon" viewBox="0 0 1024 1024" version="1.1" xmlns="http://www.w3.org/2000/svg" p-id="4795" xmlns:xlink="http://www.w3.org/1999/xlink" width="128" height="128"><path d="M586.5 311.3c-11.9-40.3-52.2-56.9-87.8-35.6L157.1 489.2c-30.8 19-47.4 61.7-38 97.3l23.7 92.5c9.5 35.6 45.1 64.1 83 64.1l59.3 2.4 33.2 121 135.2-38c35.6-9.5 56.9-42.7 52.2-78.3l118.6 2.4c42.7 2.4 68.8-33.2 59.3-73.5l-97.1-367.8zM441.8 781l-92.5 23.7-14.2-59.3 123.4 2.4v4.7c4.7 11.9-2.5 26.2-16.7 28.5z m185.1-75.9l-398.6-9.5c-16.6 0-33.2-14.2-38-28.5l-23.7-92.5c-4.7-14.2 4.7-35.6 16.6-45.1l341.6-211.1c9.5-4.7 14.2-2.4 16.6 7.1l97.3 367.7c2.4 7.2 0 11.9-11.8 11.9z m87.7-336.9l61.7-106.8c7.1-11.9 2.4-26.1-9.5-33.2-11.9-7.1-26.1-2.4-33.2 9.5l-61.7 106.8c-7.1 11.9-2.4 26.1 9.5 33.2 11.9 7.1 26.1 2.4 33.2-9.5z m159 258.6l-106.8-61.7c-11.9-7.1-26.1-2.4-33.2 9.5-7.1 11.9-2.4 26.1 9.5 33.2l106.8 61.7c11.9 7.1 26.1 2.4 33.2-9.5 4.7-11.8 2.3-26.1-9.5-33.2z m-7.1-192.1c-2.4-11.9-16.6-21.4-28.5-16.6l-118.6 30.8c-11.9 2.4-21.4 16.6-16.6 28.5 2.4 11.9 16.6 21.4 28.5 16.6l118.6-30.8c11.8-2.4 18.9-16.7 16.6-28.5z m0 0" p-id="4796"></path></svg>